<svg width="238" height="238" viewBox="0 0 238 238" fill="none" xmlns="http://www.w3.org/2000/svg">
<path d="M119 238C184.722 238 238 184.722 238 119C238 53.2781 184.722 0 119 0C53.2781 0 0 53.2781 0 119C0 184.722 53.2781 238 119 238Z" fill="#00A652"/>
<path d="M177.623 49.9707H97.6694V165.252H177.623V49.9707Z" fill="#D9D9D9"/>
<path d="M168.482 65.0781H103.404V68.7969H168.482V65.0781Z" fill="white"/>
<path d="M168.482 79.9531H103.404V83.6719H168.482V79.9531Z" fill="white"/>
<path d="M168.482 94.8281H103.404V98.5469H168.482V94.8281Z" fill="white"/>
<path d="M168.482 109.703H103.404V113.422H168.482V109.703Z" fill="white"/>
<path d="M168.482 124.578H103.404V128.297H168.482V124.578Z" fill="white"/>
<path d="M168.482 139.453H103.404V143.172H168.482V139.453Z" fill="white"/>
<path d="M141.076 91.7581L122.739 71.8926H60.3777V188.029H141.076V91.7581Z" fill="#F7F7F7"/>
<path d="M141.076 91.1092L120.138 71.8926V91.1092H141.076Z" fill="white"/>
<path d="M131.294 98.5469H66.2161V102.266H131.294V98.5469Z" fill="#D8D9DB"/>
<path d="M131.294 113.422H66.2161V117.141H131.294V113.422Z" fill="#D8D9DB"/>
<path d="M131.294 128.297H66.2161V132.016H131.294V128.297Z" fill="#D8D9DB"/>
<path d="M131.294 143.172H66.2161V146.891H131.294V143.172Z" fill="#D8D9DB"/>
<path d="M131.294 158.047H66.2161V161.766H131.294V158.047Z" fill="#D8D9DB"/>
<path d="M131.294 172.922H66.2161V176.641H131.294V172.922Z" fill="#D8D9DB"/>
</svg>
